<?xml version="1.0" standalone="no"?>
<!DOCTYPE svg PUBLIC "-//W3C//DTD SVG 20010904//EN"
 "http://www.w3.org/TR/2001/REC-SVG-20010904/DTD/svg10.dtd">
<svg version="1.0" xmlns="http://www.w3.org/2000/svg"
 width="826.000000pt" height="826.000000pt" viewBox="0 0 826.000000 826.000000"
 preserveAspectRatio="xMidYMid meet">
<metadata>
Created by potrace 1.11, written by Peter Selinger 2001-2013
</metadata>
<g transform="translate(0.000000,826.000000) scale(0.100000,-0.100000)"
fill="#000000" stroke="none">
<path d="M0 8123 c0 -5 5 -28 11 -53 14 -58 18 -78 24 -115 3 -16 8 -38 11
-47 7 -24 14 -58 19 -97 3 -18 7 -37 10 -41 3 -4 7 -25 11 -46 3 -22 9 -55 14
-74 5 -19 18 -80 30 -136 11 -55 23 -111 26 -125 3 -13 8 -37 10 -54 3 -16 12
-57 20 -90 8 -33 17 -71 19 -85 3 -20 43 -212 69 -330 21 -96 28 -129 32 -155
3 -16 10 -45 16 -63 5 -18 7 -36 4 -39 -3 -4 -1 -12 5 -19 6 -8 9 -21 5 -29
-3 -8 -1 -15 4 -15 5 0 9 -8 8 -17 0 -10 12 -72 26 -138 15 -66 29 -133 32
-150 3 -16 12 -59 20 -95 9 -36 18 -76 20 -90 2 -14 11 -54 19 -90 8 -36 17
-80 20 -99 3 -19 7 -37 9 -40 2 -3 7 -22 10 -41 3 -19 8 -46 11 -60 3 -14 8
-36 11 -50 3 -14 9 -41 15 -61 5 -20 11 -49 13 -65 2 -16 6 -36 9 -44 3 -8 8
-31 11 -50 3 -19 26 -132 51 -250 25 -118 48 -226 50 -240 3 -14 7 -34 10 -45
15 -67 36 -163 39 -180 2 -11 12 -56 21 -100 23 -109 24 -116 31 -150 2 -16
10 -48 16 -70 5 -22 12 -51 14 -65 2 -14 9 -45 14 -70 6 -25 12 -55 14 -66 3
-12 14 -66 26 -120 28 -126 27 -125 34 -169 4 -20 8 -40 10 -44 2 -3 7 -24 10
-46 4 -22 11 -58 17 -79 6 -22 12 -51 14 -65 2 -14 4 -26 5 -26 1 0 3 -9 5
-20 2 -11 8 -42 14 -70 6 -27 14 -63 17 -80 2 -16 7 -41 11 -55 3 -14 7 -29 8
-35 5 -18 44 -210 49 -235 9 -46 15 -75 25 -115 18 -72 24 -100 27 -121 1 -12
12 -66 24 -120 51 -236 61 -281 66 -314 3 -19 8 -38 10 -41 2 -4 7 -24 10 -45
8 -48 12 -69 14 -69 2 0 6 -19 14 -65 9 -53 14 -79 22 -103 4 -12 8 -31 9 -42
1 -11 9 -52 18 -90 9 -39 18 -82 21 -95 3 -14 10 -47 16 -75 6 -27 13 -63 16
-80 2 -16 12 -59 21 -95 8 -36 17 -76 18 -90 1 -14 7 -43 13 -65 10 -36 37
-162 48 -225 3 -14 9 -41 14 -60 5 -19 11 -52 14 -74 4 -21 8 -42 11 -46 2 -3
7 -22 10 -41 3 -19 8 -47 12 -64 3 -16 7 -37 8 -45 1 -8 5 -22 8 -30 3 -8 11
-44 17 -80 7 -36 23 -112 36 -170 13 -58 25 -116 27 -130 3 -14 8 -36 11 -50
3 -14 8 -36 10 -50 7 -37 15 -69 20 -88 3 -9 8 -33 10 -52 5 -34 12 -70 16
-80 1 -3 3 -9 5 -15 1 -5 3 -14 5 -20 6 -22 7 -31 8 -52 l2 -23 911 0 911 0
-7 32 c-4 18 -13 60 -20 93 -8 33 -17 76 -20 95 -3 19 -10 53 -15 75 -6 22
-13 51 -16 65 -2 14 -12 59 -20 100 -9 41 -18 86 -20 100 -3 14 -9 41 -14 60
-7 29 -35 160 -54 260 -3 14 -12 52 -20 85 -14 59 -15 62 -17 68 0 1 -2 13 -4
27 -1 14 -7 48 -13 75 -40 181 -74 345 -79 375 -3 19 -10 40 -14 46 -5 6 -7
13 -4 15 2 3 0 22 -6 44 -5 22 -12 56 -15 75 -7 39 -8 44 -17 80 -4 14 -9 36
-11 50 -3 14 -15 68 -26 120 -11 52 -25 115 -29 140 -5 25 -12 56 -15 70 -4
14 -9 39 -11 55 -3 17 -8 37 -10 45 -5 17 -15 65 -20 95 -2 11 -6 31 -9 45
-29 132 -35 161 -39 186 -3 16 -9 47 -15 69 -6 22 -13 54 -16 70 -3 17 -15 73
-26 125 -12 52 -23 106 -25 120 -3 14 -21 97 -40 185 -19 88 -37 171 -40 185
-2 14 -6 39 -9 55 -3 17 -13 62 -22 100 -9 39 -18 79 -20 90 -1 11 -3 20 -4
20 -1 0 -3 11 -5 25 -2 14 -9 48 -15 75 -7 28 -14 60 -15 72 -2 11 -6 30 -10
42 -3 11 -8 33 -11 48 -2 16 -7 40 -10 55 -3 15 -5 30 -5 33 0 2 -5 19 -10 37
-5 18 -12 48 -15 67 -3 18 -7 41 -10 50 -2 9 -12 57 -23 106 -10 50 -24 113
-30 140 -6 28 -13 61 -15 75 -3 14 -5 25 -6 25 -1 0 -3 9 -5 20 -1 11 -10 56
-20 100 -10 44 -19 89 -20 100 -2 11 -10 49 -19 85 -8 36 -17 76 -20 90 -4 22
-35 170 -40 195 -3 12 -16 75 -20 95 -2 8 -6 26 -9 40 -12 50 -60 276 -64 305
-2 17 -7 37 -10 45 -3 8 -7 22 -8 30 -1 14 -15 82 -21 105 -4 20 -14 65 -19
93 -3 15 -8 38 -11 52 -3 14 -8 34 -10 45 -2 11 -8 40 -14 65 -5 25 -12 56
-14 70 -2 14 -9 46 -15 73 -6 26 -14 64 -17 85 -3 20 -8 40 -10 43 -2 3 -11
41 -20 85 -9 43 -18 88 -21 99 -2 11 -6 30 -9 43 -2 12 -7 34 -10 50 -3 15 -7
41 -10 57 -2 17 -8 44 -13 60 -6 17 -15 55 -20 85 -6 30 -14 66 -16 80 -3 14
-8 36 -10 50 -4 22 -10 47 -32 135 -2 11 -6 29 -7 40 -1 11 -8 45 -14 75 -7
30 -14 64 -16 75 -3 11 -12 54 -21 95 -9 41 -19 89 -21 105 -3 17 -7 36 -10
44 -4 14 -32 144 -40 191 -3 14 -7 32 -9 40 -3 8 -7 33 -11 55 -3 22 -8 43
-11 48 -6 9 -14 53 -16 89 -1 15 -5 28 -9 28 -4 0 -7 8 -6 18 0 9 -8 54 -17
100 l-18 82 -908 0 c-500 0 -909 -3 -909 -7z"/>
<path d="M6445 8120 c-4 -6 -8 -20 -11 -33 -7 -37 -11 -56 -44 -212 -18 -82
-34 -161 -36 -175 -2 -14 -7 -36 -11 -50 -3 -14 -7 -31 -9 -39 -1 -7 -7 -34
-13 -60 -6 -25 -13 -59 -16 -76 -3 -16 -7 -39 -9 -50 -16 -73 -87 -404 -90
-420 -2 -11 -6 -31 -10 -45 -3 -14 -8 -36 -10 -50 -3 -14 -8 -36 -11 -50 -3
-14 -10 -47 -15 -75 -14 -69 -15 -77 -40 -190 -12 -55 -24 -111 -27 -125 -8
-40 -11 -55 -13 -55 -1 0 -3 -9 -4 -20 -3 -20 -17 -92 -22 -110 -4 -12 -12
-56 -18 -90 -3 -14 -7 -33 -10 -43 -3 -9 -7 -28 -10 -42 -2 -14 -11 -57 -20
-95 -15 -73 -24 -115 -31 -150 -2 -11 -11 -51 -20 -90 -9 -38 -18 -82 -20 -97
-2 -15 -6 -35 -9 -45 -3 -10 -7 -29 -10 -43 -4 -23 -18 -95 -22 -112 -1 -5 -2
-9 -3 -10 -2 -2 -4 -14 -7 -28 -2 -14 -11 -56 -20 -95 -8 -38 -17 -81 -19 -95
-5 -31 -20 -104 -30 -140 -1 -3 -5 -23 -10 -45 -9 -46 -14 -72 -20 -100 -3
-11 -7 -29 -9 -40 -2 -11 -20 -94 -39 -185 -20 -91 -38 -176 -41 -190 -3 -14
-7 -36 -10 -50 -24 -110 -25 -117 -42 -200 -8 -41 -19 -91 -24 -110 -5 -19
-12 -48 -14 -65 -3 -16 -8 -41 -11 -55 -3 -14 -8 -35 -11 -47 -14 -74 -16 -84
-49 -233 -9 -41 -18 -86 -21 -100 -2 -14 -7 -36 -10 -50 -3 -14 -8 -34 -10
-45 -2 -11 -6 -31 -9 -45 -3 -14 -10 -45 -15 -70 -5 -25 -12 -56 -14 -69 -3
-13 -7 -26 -9 -28 -5 -4 -18 53 -22 92 -2 11 -8 43 -15 70 -6 28 -14 59 -16
70 -3 11 -7 37 -10 58 -2 21 -8 47 -14 56 -5 10 -7 20 -5 23 3 2 0 20 -5 39
-6 19 -13 50 -16 69 -5 34 -15 84 -20 105 -2 6 -6 26 -9 45 -4 19 -11 55 -16
80 -6 25 -12 54 -14 65 -5 29 -11 60 -30 150 -21 101 -24 112 -31 155 -3 19
-10 49 -14 65 -9 29 -13 49 -25 125 -3 19 -9 46 -12 60 -4 14 -8 32 -9 40 -1
8 -10 49 -19 90 -9 41 -19 89 -21 105 -3 17 -9 50 -15 75 -5 25 -12 56 -15 70
-2 14 -9 48 -15 75 -6 28 -12 60 -15 73 -2 12 -6 34 -10 50 -3 15 -7 39 -10
54 -3 15 -16 77 -29 139 -13 62 -21 117 -19 121 3 4 1 8 -5 8 -5 0 -9 8 -9 18
1 9 -4 40 -10 67 -6 28 -14 64 -17 80 -3 17 -8 41 -11 55 -2 14 -7 36 -10 50
-7 32 -7 30 -39 185 -15 72 -29 146 -31 165 -3 19 -8 42 -11 50 -3 8 -8 24 -9
35 -2 11 -7 36 -10 55 -4 19 -8 42 -10 50 -2 8 -6 31 -10 50 -4 19 -9 42 -10
50 -1 8 -5 26 -9 40 -3 14 -9 41 -12 60 l-5 35 -911 -1 c-502 -1 -916 -2 -920
-3 -5 0 -6 -5 -3 -9 3 -5 8 -22 10 -38 3 -16 8 -38 10 -49 11 -52 36 -173 40
-195 2 -14 12 -59 21 -100 9 -41 18 -86 20 -100 2 -14 7 -36 10 -50 9 -47 25
-125 29 -145 2 -11 7 -31 10 -45 6 -25 13 -60 22 -115 3 -16 12 -57 21 -90 8
-33 16 -76 18 -95 2 -19 4 -35 5 -35 3 0 47 -212 56 -270 3 -16 9 -46 14 -65
5 -19 12 -51 15 -70 3 -19 8 -43 11 -53 3 -10 7 -30 9 -45 4 -27 20 -104 31
-152 4 -14 7 -34 9 -45 1 -11 5 -31 8 -45 4 -14 9 -37 12 -52 7 -39 13 -70 35
-173 20 -91 25 -121 36 -185 3 -19 10 -42 15 -51 4 -9 6 -19 3 -22 -3 -3 0
-25 6 -48 7 -24 14 -54 16 -66 9 -53 12 -69 18 -93 3 -14 8 -36 10 -50 5 -27
21 -100 30 -140 4 -14 8 -40 11 -59 2 -18 7 -41 9 -50 8 -25 17 -71 23 -118 3
-24 10 -43 15 -43 5 0 6 -4 3 -10 -3 -5 2 -40 11 -77 9 -38 18 -77 19 -88 1
-11 5 -33 8 -50 9 -39 17 -74 23 -105 2 -14 10 -50 16 -80 7 -30 13 -63 14
-72 1 -10 2 -19 4 -20 2 -4 6 -23 15 -68 6 -34 50 -249 61 -300 3 -14 7 -34 9
-45 7 -42 14 -76 19 -93 3 -9 7 -33 10 -52 2 -19 9 -53 15 -75 5 -22 13 -56
16 -75 3 -19 10 -53 15 -75 7 -34 15 -73 26 -130 1 -5 3 -14 4 -20 1 -5 3 -14
4 -20 1 -5 5 -26 10 -45 4 -19 8 -42 10 -50 3 -14 14 -70 23 -115 2 -11 8 -42
14 -70 11 -52 16 -80 23 -117 2 -13 7 -30 10 -38 3 -8 7 -32 10 -52 3 -21 11
-59 17 -85 6 -27 12 -59 14 -73 2 -14 7 -36 10 -50 10 -42 27 -124 30 -145 2
-11 10 -52 19 -90 17 -82 24 -114 31 -152 4 -23 19 -95 31 -148 2 -11 23 -117
30 -155 3 -14 7 -32 9 -40 3 -8 7 -33 11 -55 3 -22 10 -47 15 -56 4 -9 6 -19
3 -22 -3 -3 -1 -21 5 -39 9 -30 17 -65 26 -123 4 -25 45 -223 51 -250 3 -11 8
-38 11 -60 3 -22 9 -49 13 -60 8 -21 9 -21 1158 -24 l1149 -3 6 29 c3 15 8 42
11 58 25 119 29 142 31 155 1 8 5 22 8 30 3 8 8 29 11 45 6 34 11 60 32 160 9
38 18 81 20 95 3 13 12 56 20 95 9 38 18 81 21 95 3 14 6 30 7 35 2 6 6 28 11
50 4 22 10 49 12 60 13 56 25 112 28 130 2 11 13 65 25 120 23 107 27 128 34
160 2 11 25 119 51 240 26 121 48 230 49 242 0 13 3 23 6 23 3 0 6 8 7 18 1
10 9 54 18 98 20 97 22 103 29 134 3 14 8 39 11 55 3 17 8 39 10 50 3 11 7 29
9 40 7 32 46 218 51 240 2 11 4 20 5 20 1 0 3 11 6 25 2 14 9 50 16 80 6 30
12 60 14 65 1 6 9 44 18 85 9 41 18 86 20 100 1 14 5 30 8 36 4 5 9 30 13 54
3 25 10 61 15 80 11 42 42 189 45 210 1 8 10 51 20 95 20 94 53 250 60 285 3
14 8 36 11 50 3 14 8 36 11 50 3 14 6 30 7 35 3 12 17 82 22 108 2 10 5 26 8
35 3 9 8 31 11 47 6 29 12 60 20 100 2 11 6 29 9 40 6 28 34 156 40 185 2 14
9 45 15 70 5 25 13 61 16 80 3 19 11 55 16 80 6 25 13 56 15 70 3 14 11 53 19
88 8 34 17 74 20 90 3 15 7 38 10 52 3 14 10 45 15 70 13 64 17 81 26 115 4
16 8 41 10 55 1 14 3 25 4 25 1 0 3 7 5 15 2 8 7 26 10 40 3 14 8 39 10 55 2
17 13 71 25 120 11 50 23 102 25 117 2 15 6 35 9 45 3 10 7 29 10 43 2 14 11
57 20 95 8 39 17 82 20 95 3 14 8 36 11 50 3 14 7 36 10 50 3 14 7 34 9 45 13
59 39 183 43 205 8 41 11 55 13 55 1 0 3 9 5 20 1 11 6 36 10 55 4 19 8 40 9
45 1 6 5 16 10 23 4 7 6 16 3 18 -2 3 -1 22 4 42 6 20 12 47 14 60 3 12 8 34
11 50 3 15 7 36 9 47 2 11 10 49 19 85 8 36 17 79 20 95 3 17 8 41 11 55 7 28
13 59 19 93 2 12 10 45 16 72 6 28 13 59 16 70 2 11 6 31 9 45 3 14 7 35 9 46
3 12 14 66 26 120 12 55 23 108 26 119 2 11 6 31 9 45 3 14 7 36 10 49 3 14
16 77 30 140 13 64 27 131 30 150 3 19 7 37 9 40 2 3 7 24 11 46 7 41 12 66
15 75 1 3 3 10 4 15 7 40 23 114 26 118 1 1 3 11 5 22 1 11 6 35 10 53 l8 32
-906 0 c-603 0 -908 -3 -912 -10z"/>
</g>
</svg>
